# Exported from Wings 3D 2.2.4
mtllib plane.mtl
o Cube1
#8 vertices, 12 faces
v -9.63800000 -9.6380000e-2 -9.63800000
v -9.63800000 -9.6380000e-2 9.63800000
v -9.63800000 9.6380000e-2 -9.63800000
v -9.63800000 9.6380000e-2 9.63800000
v 9.63800000 -9.6380000e-2 -9.63800000
v 9.63800000 -9.6380000e-2 9.63800000
v 9.63800000 9.6380000e-2 -9.63800000
v 9.63800000 9.6380000e-2 9.63800000
vt 0.0000000e+0 0.0000000e+0
vt 0.0000000e+0 5.0000000e-3
vt 0.0000000e+0 5.0000000e-3
vt 0.0000000e+0 1.0000000e-2
vt 0.0000000e+0 0.51000000
vt 8.3266727e-17 1.0000000e-2
vt 0.50000000 0.51000000
vt 0.50000000 1.0000000e-2
vt 0.50000000 0.0000000e+0
vt 0.50000000 4.3671664e-15
vt 0.50000000 5.0000000e-3
vt 0.50000000 5.0000000e-3
vt 0.50000000 1.0000000e-2
vt 0.50000000 0.50000000
vt 0.50000000 0.50500000
vt 0.50000000 0.50500000
vt 0.50000000 0.51000000
vt 1.00000000 0.50000000
vt 1.00000000 0.50500000
vt 1.00000000 0.51000000
vt 1.00000000 0.50500000
vt 1.00000000 0.0000000e+0
vt 1.00000000 0.50000000
vn -0.57735027 -0.57735027 -0.57735027
vn -0.57735027 -0.57735027 0.57735027
vn -0.57735027 0.57735027 -0.57735027
vn -0.57735027 0.57735027 0.57735027
vn 0.57735027 -0.57735027 -0.57735027
vn 0.57735027 -0.57735027 0.57735027
vn 0.57735027 0.57735027 -0.57735027
vn 0.57735027 0.57735027 0.57735027
g Cube1_Cube1_auv
usemtl Cube1_auv
s 1
f 1/23/1 5/14/5 2/22/2
f 2/12/2 3/4/3 1/3/1
f 2/22/2 5/14/5 6/9/6
f 2/16/2 8/20/8 4/17/4
f 3/11/3 5/1/5 1/10/1
f 3/5/3 8/8/8 7/7/7
f 4/13/4 3/4/3 2/12/2
f 4/6/4 8/8/8 3/5/3
f 5/18/5 8/15/8 6/14/6
f 6/21/6 8/20/8 2/16/2
f 7/2/7 5/1/5 3/11/3
f 7/19/7 8/15/8 5/18/5
